<svg width="10" height="11" viewBox="0 0 10 11" fill="none" xmlns="http://www.w3.org/2000/svg">
<g id="arrow-up" clip-path="url(#clip0_453_184)">
<path id="Vector" d="M9.33005 4.75176L9.83852 5.24724C10.0538 5.45704 10.0538 5.79628 9.83852 6.00385L5.38823 10.3427C5.17293 10.5524 4.82478 10.5524 4.61177 10.3427L0.161474 6.00608C-0.0538254 5.79628 -0.0538254 5.45704 0.161474 5.24947L0.66995 4.75399C0.88754 4.54196 1.24256 4.54642 1.45557 4.76292L4.08268 7.45012L4.08268 1.03565C4.08268 0.738812 4.32776 0.5 4.63239 0.5H5.36532C5.66995 0.5 5.91503 0.738812 5.91503 1.03565L5.91503 7.45012L8.54443 4.76068C8.75744 4.54196 9.11246 4.5375 9.33005 4.75176Z" fill="#1F6A27"/>
</g>
<defs>
<clipPath id="clip0_453_184">
<rect width="10" height="10" fill="white" transform="matrix(-1 0 0 -1 10 10.5)"/>
</clipPath>
</defs>
</svg>
