<svg width="53" height="53" viewBox="0 0 53 53" fill="none" xmlns="http://www.w3.org/2000/svg">
<path d="M46 23.125H7C6.56902 23.125 6.1557 23.2962 5.85095 23.601C5.5462 23.9057 5.375 24.319 5.375 24.75C5.38214 28.6145 6.44566 32.4035 8.45054 35.7073C10.4554 39.011 13.3254 41.7038 16.75 43.4944V44.25C16.75 45.112 17.0924 45.9386 17.7019 46.5481C18.3114 47.1576 19.138 47.5 20 47.5H33C33.862 47.5 34.6886 47.1576 35.2981 46.5481C35.9076 45.9386 36.25 45.112 36.25 44.25V43.4944C39.6746 41.7038 42.5446 39.011 44.5495 35.7073C46.5543 32.4035 47.6179 28.6145 47.625 24.75C47.625 24.319 47.4538 23.9057 47.149 23.601C46.8443 23.2962 46.431 23.125 46 23.125ZM33.9466 41C33.6641 41.1298 33.4247 41.3379 33.2569 41.5997C33.0891 41.8614 33 42.1658 33 42.4767V44.25H20V42.4808C20.0008 42.1692 19.912 41.8639 19.7442 41.6014C19.5763 41.3389 19.3366 41.1301 19.0534 41C16.1957 39.685 13.7342 37.6414 11.9158 35.0744C10.0975 32.5073 8.98643 29.5072 8.69406 26.375H44.2998C44.0081 29.5065 42.8979 32.5063 41.0807 35.0732C39.2635 37.6402 36.8032 39.6842 33.9466 41ZM17.1095 11.5469C18.1962 10.1941 18.4644 9.28002 18.3527 8.87784C18.2673 8.57518 17.8631 8.41877 17.8591 8.41877C17.4912 8.29789 17.1786 8.04964 16.9776 7.71873C16.7766 7.38783 16.7003 6.99601 16.7625 6.61386C16.8247 6.2317 17.0214 5.88432 17.317 5.63428C17.6126 5.38424 17.9878 5.24797 18.375 5.25002C18.5389 5.25021 18.7018 5.27486 18.8584 5.32315C19.0616 5.38612 20.8714 5.99955 21.4564 7.91502C21.9561 9.55424 21.3447 11.4596 19.6405 13.5802C18.5538 14.933 18.2856 15.8471 18.3973 16.2492C18.4827 16.5519 18.8787 16.7042 18.8828 16.7063C19.25 16.8269 19.5621 17.0745 19.7632 17.4046C19.9642 17.7346 20.0411 18.1256 19.9799 18.5072C19.9188 18.8888 19.7236 19.2361 19.4295 19.4868C19.1353 19.7375 18.7615 19.8751 18.375 19.875C18.2111 19.8748 18.0482 19.8502 17.8916 19.8019C17.6884 19.7389 15.8786 19.1255 15.2936 17.21C14.7939 15.5708 15.4053 13.6655 17.1095 11.5469ZM25.2345 11.5469C26.3212 10.1941 26.5894 9.28002 26.4777 8.87784C26.3923 8.57518 25.9881 8.41877 25.9841 8.41877C25.6162 8.29789 25.3036 8.04964 25.1026 7.71873C24.9016 7.38783 24.8253 6.99601 24.8875 6.61386C24.9497 6.2317 25.1464 5.88432 25.442 5.63428C25.7376 5.38424 26.1128 5.24797 26.5 5.25002C26.6639 5.25021 26.8268 5.27486 26.9834 5.32315C27.1866 5.38612 28.9964 5.99955 29.5814 7.91502C30.0811 9.55424 29.4697 11.4596 27.7655 13.5802C26.6787 14.933 26.4106 15.8471 26.5223 16.2492C26.6077 16.5519 27.0037 16.7042 27.0078 16.7063C27.375 16.8269 27.6871 17.0745 27.8882 17.4046C28.0892 17.7346 28.1661 18.1256 28.1049 18.5072C28.0438 18.8888 27.8486 19.2361 27.5545 19.4868C27.2603 19.7375 26.8865 19.8751 26.5 19.875C26.3361 19.8748 26.1732 19.8502 26.0166 19.8019C25.8134 19.7389 24.0036 19.1255 23.4186 17.21C22.9189 15.5708 23.5303 13.6655 25.2345 11.5469ZM33.3595 11.5469C34.4463 10.1941 34.7144 9.28002 34.6027 8.87784C34.5173 8.57518 34.1131 8.41877 34.1091 8.41877C33.7412 8.29789 33.4286 8.04964 33.2276 7.71873C33.0266 7.38783 32.9503 6.99601 33.0125 6.61386C33.0747 6.2317 33.2714 5.88432 33.567 5.63428C33.8626 5.38424 34.2378 5.24797 34.625 5.25002C34.7889 5.25021 34.9518 5.27486 35.1084 5.32315C35.3116 5.38612 37.1214 5.99955 37.7064 7.91502C38.2061 9.55424 37.5947 11.4596 35.8905 13.5802C34.8037 14.933 34.5356 15.8471 34.6473 16.2492C34.7327 16.5519 35.1287 16.7042 35.1328 16.7063C35.5 16.8269 35.8121 17.0745 36.0132 17.4046C36.2142 17.7346 36.2911 18.1256 36.2299 18.5072C36.1688 18.8888 35.9736 19.2361 35.6795 19.4868C35.3853 19.7375 35.0115 19.8751 34.625 19.875C34.4611 19.8748 34.2982 19.8502 34.1416 19.8019C33.9384 19.7389 32.1286 19.1255 31.5436 17.21C31.0439 15.5708 31.6553 13.6655 33.3595 11.5469Z" fill="#555353"/>
</svg>
