<svg width="52" height="52" viewBox="0 0 52 52" fill="none" xmlns="http://www.w3.org/2000/svg">
<g id="Budget">
<g id="wallet">
<path id="Vector" d="M15 18.75H38.825C40.2026 18.75 41.25 19.7993 41.25 21V37C41.25 38.2007 40.2026 39.25 38.825 39.25H14C12.2048 39.25 10.75 37.7952 10.75 36V16C10.75 14.2048 12.2048 12.75 14 12.75H37C38.2427 12.75 39.25 13.7573 39.25 15C39.25 15.1383 39.1383 15.25 39 15.25H15C14.0333 15.25 13.25 16.0333 13.25 17C13.25 17.9667 14.0333 18.75 15 18.75ZM33.25 29C33.25 30.5186 34.4814 31.75 36 31.75C37.5186 31.75 38.75 30.5186 38.75 29C38.75 27.4814 37.5186 26.25 36 26.25C34.4814 26.25 33.25 27.4814 33.25 29Z" stroke="#F9F9F9" stroke-width="1.5"/>
</g>
</g>
</svg>
