<svg width="46" height="52" viewBox="0 0 46 52" fill="none" xmlns="http://www.w3.org/2000/svg">
<g id="Question">
<path id="Vector" d="M24.5 29.5C24.5 29.7967 24.412 30.0867 24.2472 30.3334C24.0824 30.58 23.8481 30.7723 23.574 30.8858C23.2999 30.9993 22.9983 31.0291 22.7074 30.9712C22.4164 30.9133 22.1491 30.7704 21.9393 30.5607C21.7296 30.3509 21.5867 30.0836 21.5288 29.7926C21.471 29.5017 21.5007 29.2001 21.6142 28.926C21.7277 28.6519 21.92 28.4176 22.1667 28.2528C22.4133 28.088 22.7033 28 23 28C23.3978 28 23.7794 28.158 24.0607 28.4393C24.342 28.7206 24.5 29.1022 24.5 29.5ZM23 16C20.2425 16 18 18.0188 18 20.5V21C18 21.2652 18.1054 21.5196 18.2929 21.7071C18.4804 21.8946 18.7348 22 19 22C19.2652 22 19.5196 21.8946 19.7071 21.7071C19.8946 21.5196 20 21.2652 20 21V20.5C20 19.125 21.3463 18 23 18C24.6538 18 26 19.125 26 20.5C26 21.875 24.6538 23 23 23C22.7348 23 22.4804 23.1054 22.2929 23.2929C22.1054 23.4804 22 23.7348 22 24V25C22 25.2652 22.1054 25.5196 22.2929 25.7071C22.4804 25.8946 22.7348 26 23 26C23.2652 26 23.5196 25.8946 23.7071 25.7071C23.8946 25.5196 24 25.2652 24 25V24.91C26.28 24.4913 28 22.6725 28 20.5C28 18.0188 25.7575 16 23 16ZM36 23C36 25.5712 35.2376 28.0846 33.8091 30.2224C32.3807 32.3603 30.3503 34.0265 27.9749 35.0104C25.5995 35.9944 22.9856 36.2518 20.4638 35.7502C17.9421 35.2486 15.6257 34.0105 13.8076 32.1924C11.9895 30.3743 10.7514 28.0579 10.2498 25.5362C9.74819 23.0144 10.0056 20.4006 10.9896 18.0251C11.9735 15.6497 13.6398 13.6194 15.7776 12.1909C17.9154 10.7624 20.4288 10 23 10C26.4467 10.0036 29.7512 11.3744 32.1884 13.8116C34.6256 16.2488 35.9964 19.5533 36 23ZM34 23C34 20.8244 33.3549 18.6977 32.1462 16.8887C30.9375 15.0798 29.2195 13.6699 27.2095 12.8373C25.1995 12.0048 22.9878 11.7869 20.854 12.2114C18.7202 12.6358 16.7602 13.6834 15.2218 15.2218C13.6835 16.7602 12.6358 18.7202 12.2114 20.854C11.7869 22.9878 12.0048 25.1995 12.8373 27.2095C13.6699 29.2195 15.0798 30.9375 16.8887 32.1462C18.6977 33.3549 20.8244 34 23 34C25.9164 33.9967 28.7123 32.8367 30.7745 30.7745C32.8367 28.7123 33.9967 25.9164 34 23Z" fill="#F9F9F9"/>
</g>
</svg>
