<svg width="44" height="52" viewBox="0 0 44 52" fill="none" xmlns="http://www.w3.org/2000/svg">
<g id="SignOut">
<path id="Vector" d="M20 37C20 37.2652 19.8946 37.5196 19.7071 37.7071C19.5196 37.8946 19.2652 38 19 38H11C10.7348 38 10.4804 37.8946 10.2929 37.7071C10.1054 37.5196 10 37.2652 10 37V15C10 14.7348 10.1054 14.4804 10.2929 14.2929C10.4804 14.1054 10.7348 14 11 14H19C19.2652 14 19.5196 14.1054 19.7071 14.2929C19.8946 14.4804 20 14.7348 20 15C20 15.2652 19.8946 15.5196 19.7071 15.7071C19.5196 15.8946 19.2652 16 19 16H12V36H19C19.2652 36 19.5196 36.1054 19.7071 36.2929C19.8946 36.4804 20 36.7348 20 37ZM33.7075 25.2925L28.7075 20.2925C28.5199 20.1049 28.2654 19.9994 28 19.9994C27.7346 19.9994 27.4801 20.1049 27.2925 20.2925C27.1049 20.4801 26.9994 20.7346 26.9994 21C26.9994 21.2654 27.1049 21.5199 27.2925 21.7075L30.5863 25H19C18.7348 25 18.4804 25.1054 18.2929 25.2929C18.1054 25.4804 18 25.7348 18 26C18 26.2652 18.1054 26.5196 18.2929 26.7071C18.4804 26.8946 18.7348 27 19 27H30.5863L27.2925 30.2925C27.1049 30.4801 26.9994 30.7346 26.9994 31C26.9994 31.2654 27.1049 31.5199 27.2925 31.7075C27.4801 31.8951 27.7346 32.0006 28 32.0006C28.2654 32.0006 28.5199 31.8951 28.7075 31.7075L33.7075 26.7075C33.8005 26.6146 33.8742 26.5043 33.9246 26.3829C33.9749 26.2615 34.0008 26.1314 34.0008 26C34.0008 25.8686 33.9749 25.7385 33.9246 25.6171C33.8742 25.4957 33.8005 25.3854 33.7075 25.2925Z" fill="#F9F9F9"/>
</g>
</svg>
