<svg width="52" height="52" viewBox="0 0 52 52" fill="none" xmlns="http://www.w3.org/2000/svg">
<g id="SquaresFour">
<path id="Vector" d="M23 15H17C16.4696 15 15.9609 15.2107 15.5858 15.5858C15.2107 15.9609 15 16.4696 15 17V23C15 23.5304 15.2107 24.0391 15.5858 24.4142C15.9609 24.7893 16.4696 25 17 25H23C23.5304 25 24.0391 24.7893 24.4142 24.4142C24.7893 24.0391 25 23.5304 25 23V17C25 16.4696 24.7893 15.9609 24.4142 15.5858C24.0391 15.2107 23.5304 15 23 15ZM23 23H17V17H23V23ZM35 15H29C28.4696 15 27.9609 15.2107 27.5858 15.5858C27.2107 15.9609 27 16.4696 27 17V23C27 23.5304 27.2107 24.0391 27.5858 24.4142C27.9609 24.7893 28.4696 25 29 25H35C35.5304 25 36.0391 24.7893 36.4142 24.4142C36.7893 24.0391 37 23.5304 37 23V17C37 16.4696 36.7893 15.9609 36.4142 15.5858C36.0391 15.2107 35.5304 15 35 15ZM35 23H29V17H35V23ZM23 27H17C16.4696 27 15.9609 27.2107 15.5858 27.5858C15.2107 27.9609 15 28.4696 15 29V35C15 35.5304 15.2107 36.0391 15.5858 36.4142C15.9609 36.7893 16.4696 37 17 37H23C23.5304 37 24.0391 36.7893 24.4142 36.4142C24.7893 36.0391 25 35.5304 25 35V29C25 28.4696 24.7893 27.9609 24.4142 27.5858C24.0391 27.2107 23.5304 27 23 27ZM23 35H17V29H23V35ZM35 27H29C28.4696 27 27.9609 27.2107 27.5858 27.5858C27.2107 27.9609 27 28.4696 27 29V35C27 35.5304 27.2107 36.0391 27.5858 36.4142C27.9609 36.7893 28.4696 37 29 37H35C35.5304 37 36.0391 36.7893 36.4142 36.4142C36.7893 36.0391 37 35.5304 37 35V29C37 28.4696 36.7893 27.9609 36.4142 27.5858C36.0391 27.2107 35.5304 27 35 27ZM35 35H29V29H35V35Z" fill="#F9F9F9"/>
</g>
</svg>
