<svg width="49" height="44" viewBox="0 0 49 44" fill="none" xmlns="http://www.w3.org/2000/svg">
<path d="M44.7424 13.0125C44.4579 12.6932 44.1089 12.4378 43.7185 12.2633C43.3281 12.0888 42.905 11.999 42.4774 12H33.4924C33.4924 9.61305 32.5442 7.32387 30.8563 5.63604C29.1685 3.94821 26.8793 3 24.4924 3C22.1054 3 19.8163 3.94821 18.1284 5.63604C16.4406 7.32387 15.4924 9.61305 15.4924 12H6.50739C6.08225 12.0011 5.66213 12.0919 5.27444 12.2664C4.88675 12.4408 4.54019 12.6951 4.25739 13.0125C3.97694 13.3287 3.76649 13.7007 3.63982 14.104C3.51316 14.5072 3.47314 14.9327 3.52239 15.3525L6.19614 37.8525C6.28286 38.5856 6.63682 39.261 7.19031 39.7494C7.7438 40.2379 8.45795 40.5051 9.19614 40.5H39.8055C40.5437 40.5051 41.2578 40.2379 41.8113 39.7494C42.3648 39.261 42.7188 38.5856 42.8055 37.8525L45.4793 15.3525C45.5283 14.9326 45.4879 14.507 45.3609 14.1037C45.234 13.7005 45.0232 13.3286 44.7424 13.0125ZM24.4924 6C26.0837 6 27.6098 6.63214 28.735 7.75736C29.8602 8.88258 30.4924 10.4087 30.4924 12H18.4924C18.4924 10.4087 19.1245 8.88258 20.2497 7.75736C21.375 6.63214 22.9011 6 24.4924 6ZM39.8224 37.5C39.8169 37.502 39.811 37.502 39.8055 37.5H9.16426L6.50739 15H15.4924V19.5C15.4924 19.8978 15.6504 20.2794 15.9317 20.5607C16.213 20.842 16.5946 21 16.9924 21C17.3902 21 17.7717 20.842 18.053 20.5607C18.3343 20.2794 18.4924 19.8978 18.4924 19.5V15H30.4924V19.5C30.4924 19.8978 30.6504 20.2794 30.9317 20.5607C31.213 20.842 31.5946 21 31.9924 21C32.3902 21 32.7717 20.842 33.053 20.5607C33.3343 20.2794 33.4924 19.8978 33.4924 19.5V15H42.4924L39.8224 37.5Z" fill="#555353"/>
</svg>
