<svg width="10" height="11" viewBox="0 0 10 11" fill="none" xmlns="http://www.w3.org/2000/svg">
<g id="arrow-up" clip-path="url(#clip0_453_208)">
<path id="Vector" d="M0.66995 6.24824L0.161475 5.75276C-0.053825 5.54296 -0.053825 5.20372 0.161475 4.99615L4.61177 0.657349C4.82707 0.44755 5.17522 0.44755 5.38823 0.657349L9.83853 4.99392C10.0538 5.20372 10.0538 5.54296 9.83853 5.75053L9.33005 6.24601C9.11246 6.45804 8.75744 6.45358 8.54443 6.23708L5.91732 3.54988V9.96435C5.91732 10.2612 5.67224 10.5 5.36761 10.5H4.63468C4.33005 10.5 4.08497 10.2612 4.08497 9.96435V3.54988L1.45557 6.23932C1.24256 6.45804 0.88754 6.4625 0.66995 6.24824Z" fill="#DC0A0A"/>
</g>
<defs>
<clipPath id="clip0_453_208">
<rect width="10" height="10" fill="white" transform="translate(0 0.5)"/>
</clipPath>
</defs>
</svg>
