<svg width="26" height="25" viewBox="0 0 26 25" fill="none" xmlns="http://www.w3.org/2000/svg">
<g id="bell">
<path id="Vector" d="M22.9059 18.2012L22.9056 18.2009C22.8513 18.1426 22.7924 18.0808 22.7297 18.015C22.2742 17.5372 21.6173 16.8481 21.0742 15.7482C20.454 14.4924 19.9961 12.7441 19.9961 10.1562C19.9961 6.73718 17.6048 3.99126 14.3465 3.3144L13.7491 3.19029V2.58008V1.5625C13.7491 1.11346 13.3852 0.75 12.9375 0.75C12.4899 0.75 12.126 1.11346 12.126 1.5625V2.58008V3.19029L11.5286 3.3144C8.27022 3.99126 5.87894 6.73718 5.87894 10.1562C5.87894 12.7441 5.4211 14.4924 4.80092 15.7482C4.25775 16.8481 3.60087 17.5372 3.1454 18.015C3.0827 18.0807 3.02382 18.1425 2.96958 18.2008C2.8109 18.3714 2.74882 18.5616 2.75002 18.745L22.9059 18.2012ZM22.9059 18.2012C23.064 18.3709 23.1263 18.5613 23.1251 18.745L23.125 18.7454M22.9059 18.2012L23.125 18.7454M23.125 18.7454C23.1224 19.1787 22.7853 19.5625 22.3077 19.5625H3.56742C3.09013 19.5625 2.75296 19.179 2.75002 18.745L23.125 18.7454ZM15.1903 22.625C14.8764 23.5693 13.986 24.25 12.9375 24.25C11.8891 24.25 10.9987 23.5693 10.6848 22.625H15.1903Z" stroke="#444242" stroke-width="1.5"/>
<circle id="Indicator" cx="20" cy="5.5" r="4" fill="#FF4242"/>
</g>
</svg>
