<svg width="24" height="25" viewBox="0 0 24 25" fill="none" xmlns="http://www.w3.org/2000/svg">
<g id="ChatCircleDots">
<path id="Vector" d="M12.875 12.497C12.875 12.7195 12.809 12.937 12.6854 13.122C12.5618 13.307 12.3861 13.4512 12.1805 13.5363C11.975 13.6215 11.7488 13.6438 11.5305 13.6004C11.3123 13.557 11.1118 13.4498 10.9545 13.2925C10.7972 13.1351 10.69 12.9347 10.6466 12.7165C10.6032 12.4982 10.6255 12.272 10.7106 12.0665C10.7958 11.8609 10.94 11.6852 11.125 11.5616C11.31 11.438 11.5275 11.372 11.75 11.372C12.0484 11.372 12.3345 11.4905 12.5455 11.7015C12.7565 11.9125 12.875 12.1986 12.875 12.497ZM7.625 11.372C7.4025 11.372 7.18499 11.438 6.99998 11.5616C6.81498 11.6852 6.67078 11.8609 6.58564 12.0665C6.50049 12.272 6.47821 12.4982 6.52162 12.7165C6.56502 12.9347 6.67217 13.1351 6.8295 13.2925C6.98684 13.4498 7.18729 13.557 7.40552 13.6004C7.62375 13.6438 7.84995 13.6215 8.05552 13.5363C8.26109 13.4512 8.43679 13.307 8.5604 13.122C8.68402 12.937 8.75 12.7195 8.75 12.497C8.75 12.1986 8.63147 11.9125 8.4205 11.7015C8.20952 11.4905 7.92337 11.372 7.625 11.372ZM15.875 11.372C15.6525 11.372 15.435 11.438 15.25 11.5616C15.065 11.6852 14.9208 11.8609 14.8356 12.0665C14.7505 12.272 14.7282 12.4982 14.7716 12.7165C14.815 12.9347 14.9222 13.1351 15.0795 13.2925C15.2368 13.4498 15.4373 13.557 15.6555 13.6004C15.8738 13.6438 16.1 13.6215 16.3055 13.5363C16.5111 13.4512 16.6868 13.307 16.8104 13.122C16.934 12.937 17 12.7195 17 12.497C17 12.1986 16.8815 11.9125 16.6705 11.7015C16.4595 11.4905 16.1734 11.372 15.875 11.372ZM21.5 12.497C21.5004 14.1803 21.0649 15.835 20.236 17.3001C19.4072 18.7652 18.2131 19.9907 16.77 20.8574C15.327 21.7241 13.6841 22.2025 12.0014 22.2459C10.3186 22.2893 8.6533 21.8963 7.1675 21.1051L3.97531 22.1692C3.71102 22.2573 3.4274 22.2701 3.15624 22.2061C2.88509 22.1421 2.63711 22.0039 2.44011 21.8069C2.24311 21.6099 2.10486 21.3619 2.04087 21.0907C1.97688 20.8196 1.98967 20.536 2.07781 20.2717L3.14187 17.0795C2.44639 15.7719 2.05793 14.323 2.006 12.8429C1.95406 11.3628 2.24001 9.89023 2.84213 8.5371C3.44425 7.18397 4.34672 5.9858 5.48105 5.03353C6.61537 4.08126 7.95173 3.39992 9.38869 3.04124C10.8256 2.68255 12.3254 2.65593 13.7742 2.96342C15.223 3.2709 16.5827 3.9044 17.7501 4.81582C18.9175 5.72725 19.8619 6.89265 20.5116 8.22357C21.1614 9.55448 21.4994 11.0159 21.5 12.497ZM20 12.497C19.9996 11.2315 19.7082 9.983 19.1481 8.84818C18.588 7.71335 17.7744 6.72257 16.7701 5.95251C15.7659 5.18244 14.5979 4.65373 13.3567 4.40728C12.1154 4.16082 10.834 4.20323 9.61178 4.53122C8.38951 4.85922 7.25909 5.464 6.30796 6.29878C5.35682 7.13357 4.61049 8.17597 4.12668 9.34535C3.64288 10.5147 3.43458 11.7797 3.5179 13.0425C3.60122 14.3053 3.97393 15.5319 4.60719 16.6276C4.66034 16.7196 4.69334 16.8218 4.704 16.9275C4.71467 17.0332 4.70276 17.14 4.66906 17.2407L3.5 20.747L7.00625 19.5779C7.08262 19.5519 7.16275 19.5386 7.24344 19.5385C7.37516 19.5388 7.5045 19.5737 7.61844 19.6398C8.87263 20.3654 10.2958 20.748 11.7448 20.7489C13.1938 20.7498 14.6174 20.3691 15.8725 19.645C17.1276 18.9209 18.1699 17.8791 18.8945 16.6243C19.619 15.3695 20.0003 13.946 20 12.497Z" fill="#444242"/>
</g>
</svg>
