<svg width="53" height="53" viewBox="0 0 53 53" fill="none" xmlns="http://www.w3.org/2000/svg">
<path d="M49.4531 14.6497L45.5247 10.7253C45.2198 10.4204 44.8062 10.2491 44.375 10.2491C43.9438 10.2491 43.5302 10.4204 43.2253 10.7253C42.9204 11.0302 42.7491 11.4438 42.7491 11.875C42.7491 12.3062 42.9204 12.7198 43.2253 13.0247L47.1497 16.9531C47.4529 17.2566 47.6237 17.6677 47.625 18.0967V34.625C47.625 35.056 47.4538 35.4693 47.149 35.774C46.8443 36.0788 46.431 36.25 46 36.25C45.569 36.25 45.1557 36.0788 44.851 35.774C44.5462 35.4693 44.375 35.056 44.375 34.625V26.5C44.375 25.2071 43.8614 23.9671 42.9471 23.0529C42.0329 22.1386 40.7929 21.625 39.5 21.625H36.25V11.875C36.25 10.5821 35.7364 9.34209 34.8221 8.42785C33.9079 7.51361 32.6679 7 31.375 7H15.125C13.8321 7 12.5921 7.51361 11.6779 8.42785C10.7636 9.34209 10.25 10.5821 10.25 11.875V42.75H7C6.56902 42.75 6.1557 42.9212 5.85095 43.226C5.5462 43.5307 5.375 43.944 5.375 44.375C5.375 44.806 5.5462 45.2193 5.85095 45.524C6.1557 45.8288 6.56902 46 7 46H39.5C39.931 46 40.3443 45.8288 40.649 45.524C40.9538 45.2193 41.125 44.806 41.125 44.375C41.125 43.944 40.9538 43.5307 40.649 43.226C40.3443 42.9212 39.931 42.75 39.5 42.75H36.25V24.875H39.5C39.931 24.875 40.3443 25.0462 40.649 25.351C40.9538 25.6557 41.125 26.069 41.125 26.5V34.625C41.125 35.9179 41.6386 37.1579 42.5529 38.0721C43.4671 38.9864 44.7071 39.5 46 39.5C47.2929 39.5 48.5329 38.9864 49.4471 38.0721C50.3614 37.1579 50.875 35.9179 50.875 34.625V18.0967C50.8774 17.4567 50.753 16.8226 50.509 16.2309C50.2649 15.6393 49.9061 15.1018 49.4531 14.6497ZM13.5 42.75V11.875C13.5 11.444 13.6712 11.0307 13.976 10.726C14.2807 10.4212 14.694 10.25 15.125 10.25H31.375C31.806 10.25 32.2193 10.4212 32.524 10.726C32.8288 11.0307 33 11.444 33 11.875V42.75H13.5ZM29.75 23.25C29.75 23.681 29.5788 24.0943 29.274 24.399C28.9693 24.7038 28.556 24.875 28.125 24.875H18.375C17.944 24.875 17.5307 24.7038 17.226 24.399C16.9212 24.0943 16.75 23.681 16.75 23.25C16.75 22.819 16.9212 22.4057 17.226 22.101C17.5307 21.7962 17.944 21.625 18.375 21.625H28.125C28.556 21.625 28.9693 21.7962 29.274 22.101C29.5788 22.4057 29.75 22.819 29.75 23.25Z" fill="#444242"/>
</svg>
