<svg width="48" height="48" viewBox="0 0 48 48" fill="none" xmlns="http://www.w3.org/2000/svg">
<path d="M33.0002 43.5048C33.0002 43.9026 32.8422 44.2841 32.5609 44.5655C32.2796 44.8468 31.8981 45.0048 31.5002 45.0048H16.5002C16.1024 45.0048 15.7209 44.8468 15.4396 44.5655C15.1583 44.2841 15.0002 43.9026 15.0002 43.5048C15.0002 43.107 15.1583 42.7254 15.4396 42.4441C15.7209 42.1628 16.1024 42.0048 16.5002 42.0048H31.5002C31.8981 42.0048 32.2796 42.1628 32.5609 42.4441C32.8422 42.7254 33.0002 43.107 33.0002 43.5048ZM40.5002 19.5048C40.5067 22.0054 39.9418 24.4744 38.8487 26.7234C37.7555 28.9724 36.163 30.9419 34.1927 32.4817C33.8243 32.7641 33.5254 33.1269 33.3187 33.5426C33.112 33.9582 33.0031 34.4156 33.0002 34.8798V36.0048C33.0002 36.8004 32.6842 37.5635 32.1216 38.1261C31.559 38.6887 30.7959 39.0048 30.0002 39.0048H18.0002C17.2046 39.0048 16.4415 38.6887 15.8789 38.1261C15.3163 37.5635 15.0002 36.8004 15.0002 36.0048V34.8798C14.9999 34.4212 14.8945 33.9687 14.692 33.5572C14.4895 33.1457 14.1953 32.7861 13.8321 32.506C11.867 30.9756 10.2757 29.0182 9.17874 26.782C8.08175 24.5458 7.50777 22.0893 7.50025 19.5985C7.4515 10.6604 14.674 3.22041 23.6027 3.00479C25.8028 2.95177 27.9912 3.33939 30.0392 4.14482C32.0871 4.95026 33.9533 6.15723 35.5278 7.69471C37.1023 9.23219 38.3534 11.0691 39.2073 13.0973C40.0613 15.1256 40.5009 17.3041 40.5002 19.5048ZM37.5002 19.5048C37.5008 17.7042 37.1411 15.9216 36.4423 14.2621C35.7436 12.6026 34.7199 11.0996 33.4315 9.84162C32.1432 8.58367 30.6162 7.59617 28.9405 6.93724C27.2647 6.27831 25.4741 5.96127 23.674 6.00479C16.3615 6.17729 10.4609 12.2654 10.5002 19.5779C10.507 21.6153 10.977 23.6244 11.8749 25.4533C12.7728 27.2822 14.0749 28.8829 15.6827 30.1342C16.4055 30.696 16.99 31.4157 17.3917 32.2383C17.7934 33.0608 18.0016 33.9644 18.0002 34.8798V36.0048H22.5002V27.6254L16.939 22.066C16.6575 21.7846 16.4994 21.4028 16.4994 21.0048C16.4994 20.6067 16.6575 20.225 16.939 19.9435C17.2205 19.6621 17.6022 19.504 18.0002 19.504C18.3983 19.504 18.78 19.6621 19.0615 19.9435L24.0002 24.8842L28.939 19.9435C29.0784 19.8042 29.2438 19.6936 29.4259 19.6182C29.608 19.5428 29.8032 19.504 30.0002 19.504C30.1973 19.504 30.3925 19.5428 30.5746 19.6182C30.7567 19.6936 30.9221 19.8042 31.0615 19.9435C31.2009 20.0829 31.3114 20.2484 31.3868 20.4304C31.4623 20.6125 31.5011 20.8077 31.5011 21.0048C31.5011 21.2019 31.4623 21.397 31.3868 21.5791C31.3114 21.7612 31.2009 21.9267 31.0615 22.066L25.5002 27.6254V36.0048H30.0002V34.8798C30.0019 33.9617 30.2134 33.0562 30.6187 32.2324C31.0239 31.4086 31.6121 30.6883 32.3384 30.1267C33.9511 28.8664 35.2544 27.2542 36.1491 25.4133C37.0437 23.5725 37.5058 21.5515 37.5002 19.5048Z" fill="#1C2D5E"/>
</svg>
