<svg width="18" height="18" viewBox="0 0 18 18" fill="none" xmlns="http://www.w3.org/2000/svg">
<path d="M16.375 2.57143V4.17857C16.375 4.30881 16.2938 4.51718 15.9505 4.78194C15.6144 5.04121 15.0967 5.29653 14.4125 5.52014C13.0496 5.96557 11.1357 6.25 9 6.25C6.86429 6.25 4.95036 5.96557 3.58745 5.52014C2.90326 5.29653 2.38559 5.04121 2.04945 4.78194C1.70619 4.51718 1.625 4.30881 1.625 4.17857V2.57143C1.625 2.44119 1.70619 2.23282 2.04945 1.96806C2.38559 1.70878 2.90326 1.45347 3.58745 1.22986C4.95036 0.784432 6.86429 0.5 9 0.5C11.1357 0.5 13.0496 0.784432 14.4125 1.22986C15.0967 1.45347 15.6144 1.70878 15.9505 1.96806C16.2938 2.23282 16.375 2.44119 16.375 2.57143ZM16.375 7.05557V9.80357C16.375 9.93381 16.2938 10.1422 15.9505 10.4069C15.6144 10.6662 15.0967 10.9215 14.4125 11.1451C13.0496 11.5906 11.1357 11.875 9 11.875C6.86429 11.875 4.95036 11.5906 3.58745 11.1451C2.90326 10.9215 2.38559 10.6662 2.04945 10.4069C1.70619 10.1422 1.625 9.93381 1.625 9.80357V7.05557C2.43222 7.45538 3.39937 7.75483 4.4391 7.96805C5.8495 8.2573 7.42964 8.39511 9 8.39511C10.5704 8.39511 12.1505 8.2573 13.5609 7.96805C14.6006 7.75483 15.5678 7.45538 16.375 7.05557ZM13.5609 13.5931C14.6006 13.3798 15.5678 13.0804 16.375 12.6806V15.4286C16.375 15.5588 16.2938 15.7672 15.9505 16.0319C15.6144 16.2912 15.0967 16.5465 14.4125 16.7701C13.0496 17.2156 11.1357 17.5 9 17.5C6.86429 17.5 4.95036 17.2156 3.58745 16.7701C2.90326 16.5465 2.38559 16.2912 2.04945 16.0319C1.70619 15.7672 1.625 15.5588 1.625 15.4286V12.6806C2.43222 13.0804 3.39937 13.3798 4.4391 13.5931C5.8495 13.8823 7.42964 14.0201 9 14.0201C10.5704 14.0201 12.1505 13.8823 13.5609 13.5931Z" stroke="black"/>
</svg>
