<svg width="52" height="52" viewBox="0 0 52 52" fill="none" xmlns="http://www.w3.org/2000/svg">
<g id="ChartLine">
<path id="Vector" d="M38.9775 36C38.9775 36.2652 38.8722 36.5196 38.6847 36.7071C38.4971 36.8946 38.2428 37 37.9775 37H13.9775C13.7123 37 13.458 36.8946 13.2704 36.7071C13.0829 36.5196 12.9775 36.2652 12.9775 36V16C12.9775 15.7348 13.0829 15.4804 13.2704 15.2929C13.458 15.1054 13.7123 15 13.9775 15C14.2428 15 14.4971 15.1054 14.6846 15.2929C14.8722 15.4804 14.9775 15.7348 14.9775 16V27.7962L21.3188 22.25C21.4913 22.0989 21.7106 22.0118 21.9397 22.0031C22.1689 21.9945 22.3941 22.0649 22.5775 22.2025L29.9288 27.7162L37.3188 21.25C37.4157 21.1541 37.5312 21.079 37.6581 21.0293C37.7851 20.9797 37.9209 20.9565 38.0572 20.9613C38.1934 20.9661 38.3273 20.9986 38.4505 21.057C38.5737 21.1154 38.6837 21.1983 38.7736 21.3008C38.8636 21.4032 38.9317 21.523 38.9737 21.6527C39.0157 21.7824 39.0307 21.9193 39.0178 22.055C39.005 22.1908 38.9645 22.3224 38.8989 22.4419C38.8333 22.5615 38.7439 22.6663 38.6363 22.75L30.6363 29.75C30.4637 29.9011 30.2445 29.9882 30.0153 29.9969C29.7862 30.0055 29.561 29.9351 29.3775 29.7975L22.0263 24.2863L14.9775 30.4538V35H37.9775C38.2428 35 38.4971 35.1054 38.6847 35.2929C38.8722 35.4804 38.9775 35.7348 38.9775 36Z" fill="#F9F9F9"/>
</g>
</svg>
