<svg width="52" height="52" viewBox="0 0 52 52" fill="none" xmlns="http://www.w3.org/2000/svg">
<g id="database">
<path id="Vector" d="M39 14.5714V17.4286C39 17.6104 38.8866 17.952 38.2887 18.4133C37.705 18.8635 36.7978 19.3125 35.5878 19.708C33.1787 20.4953 29.7883 21 26 21C22.2117 21 18.8213 20.4953 16.4122 19.708C15.2022 19.3125 14.295 18.8635 13.7113 18.4133C13.1134 17.952 13 17.6104 13 17.4286V14.5714C13 14.3896 13.1134 14.048 13.7113 13.5867C14.295 13.1365 15.2022 12.6875 16.4122 12.292C18.8213 11.5047 22.2117 11 26 11C29.7883 11 33.1787 11.5047 35.5878 12.292C36.7978 12.6875 37.705 13.1365 38.2887 13.5867C38.8866 14.048 39 14.3896 39 14.5714ZM39 22.721V27.4286C39 27.6104 38.8866 27.952 38.2887 28.4133C37.705 28.8635 36.7978 29.3125 35.5878 29.708C33.1787 30.4953 29.7883 31 26 31C22.2117 31 18.8213 30.4953 16.4122 29.708C15.2022 29.3125 14.295 28.8635 13.7113 28.4133C13.1134 27.952 13 27.6104 13 27.4286V22.721C14.4137 23.3985 16.0841 23.9081 17.8694 24.2743C20.3854 24.7903 23.2022 25.0358 26 25.0358C28.7978 25.0358 31.6145 24.7903 34.1306 24.2743C35.9159 23.9081 37.5863 23.3985 39 22.721ZM34.1306 34.2743C35.9159 33.9081 37.5863 33.3985 39 32.721V37.4286C39 37.6104 38.8866 37.952 38.2887 38.4133C37.705 38.8635 36.7978 39.3125 35.5878 39.708C33.1787 40.4953 29.7883 41 26 41C22.2117 41 18.8213 40.4953 16.4122 39.708C15.2022 39.3125 14.295 38.8635 13.7113 38.4133C13.1134 37.952 13 37.6104 13 37.4286V32.721C14.4137 33.3985 16.0841 33.9081 17.8694 34.2743C20.3854 34.7903 23.2022 35.0357 26 35.0357C28.7978 35.0357 31.6145 34.7903 34.1306 34.2743Z" stroke="#FCFCFC" stroke-width="2"/>
</g>
</svg>
