<svg width="18" height="18" viewBox="0 0 18 18" fill="none" xmlns="http://www.w3.org/2000/svg">
<path d="M16.3123 4.5H14.2951L16.1478 2.64797C16.2001 2.59571 16.2415 2.53366 16.2698 2.46538C16.2981 2.3971 16.3127 2.32391 16.3127 2.25C16.3127 2.17609 16.2981 2.1029 16.2698 2.03462C16.2415 1.96634 16.2001 1.90429 16.1478 1.85203C16.0955 1.79977 16.0335 1.75831 15.9652 1.73003C15.8969 1.70174 15.8238 1.68719 15.7498 1.68719C15.6759 1.68719 15.6027 1.70174 15.5345 1.73003C15.4662 1.75831 15.4041 1.79977 15.3519 1.85203L13.4998 3.70477V1.6875C13.4998 1.53832 13.4406 1.39524 13.3351 1.28975C13.2296 1.18426 13.0865 1.125 12.9373 1.125C12.7882 1.125 12.6451 1.18426 12.5396 1.28975C12.4341 1.39524 12.3748 1.53832 12.3748 1.6875V3.97758C11.5177 3.48278 10.5214 3.28433 9.54013 3.41297C8.55884 3.5416 7.64733 3.99014 6.94672 4.68914C4.12719 7.45875 2.00726 14.0463 1.80054 14.7052C1.70308 14.9144 1.67232 15.1485 1.71244 15.3758C1.75256 15.6031 1.86162 15.8125 2.02482 15.9757C2.18802 16.1389 2.39747 16.248 2.62476 16.2881C2.85205 16.3282 3.08617 16.2975 3.29539 16.2C3.95422 15.9933 10.5502 13.8705 13.3128 11.0524C14.0113 10.3516 14.4594 9.4401 14.5876 8.45898C14.7159 7.47786 14.5172 6.48181 14.0223 5.625H16.3123C16.4615 5.625 16.6046 5.56574 16.7101 5.46025C16.8156 5.35476 16.8748 5.21168 16.8748 5.0625C16.8748 4.91332 16.8156 4.77024 16.7101 4.66475C16.6046 4.55926 16.4615 4.5 16.3123 4.5ZM12.507 10.2656C11.8784 10.9069 11.0129 11.5172 10.0566 12.0748L8.27211 10.2895C8.21984 10.2373 8.1578 10.1958 8.08952 10.1675C8.02123 10.1392 7.94805 10.1247 7.87414 10.1247C7.80023 10.1247 7.72704 10.1392 7.65876 10.1675C7.59048 10.1958 7.52843 10.2373 7.47617 10.2895C7.42391 10.3418 7.38245 10.4038 7.35417 10.4721C7.32588 10.5404 7.31133 10.6136 7.31133 10.6875C7.31133 10.7614 7.32588 10.8346 7.35417 10.9029C7.38245 10.9712 7.42391 11.0332 7.47617 11.0855L9.02937 12.6387C6.1557 14.1286 2.96 15.1291 2.91218 15.1439C2.87756 15.1551 2.84412 15.1697 2.81234 15.1875C2.82933 15.1559 2.84322 15.1227 2.85383 15.0884C2.87422 15.023 4.82258 8.78977 7.35383 5.90062L9.72828 8.27508C9.83383 8.38063 9.97698 8.43992 10.1262 8.43992C10.2755 8.43992 10.4187 8.38063 10.5242 8.27508C10.6298 8.16953 10.6891 8.02638 10.6891 7.87711C10.6891 7.72784 10.6298 7.58469 10.5242 7.47914L8.16875 5.12437C8.85886 4.63336 9.70836 4.41977 10.5486 4.526C11.3889 4.63222 12.1585 5.0505 12.7047 5.69781C13.2509 6.34511 13.5338 7.17412 13.4972 8.02029C13.4606 8.86647 13.1071 9.66794 12.507 10.2656Z" fill="#444242"/>
</svg>
