<svg width="47" height="52" viewBox="0 0 47 52" fill="none" xmlns="http://www.w3.org/2000/svg">
<g id="Gear">
<path id="Vector" d="M23.0801 19.9981C21.8934 19.9981 20.7334 20.35 19.7467 21.0093C18.76 21.6686 17.991 22.6056 17.5369 23.702C17.0827 24.7984 16.9639 26.0048 17.1954 27.1686C17.4269 28.3325 17.9984 29.4016 18.8375 30.2407C19.6766 31.0799 20.7457 31.6513 21.9096 31.8828C23.0735 32.1143 24.2799 31.9955 25.3762 31.5414C26.4726 31.0873 27.4097 30.3182 28.069 29.3315C28.7282 28.3448 29.0801 27.1848 29.0801 25.9981C29.0785 24.4073 28.4458 22.8822 27.321 21.7573C26.1961 20.6324 24.6709 19.9998 23.0801 19.9981ZM23.0801 29.9981C22.289 29.9981 21.5157 29.7635 20.8579 29.324C20.2001 28.8845 19.6874 28.2597 19.3846 27.5288C19.0819 26.7979 19.0027 25.9937 19.157 25.2177C19.3113 24.4418 19.6923 23.7291 20.2517 23.1697C20.8111 22.6103 21.5239 22.2293 22.2998 22.075C23.0757 21.9206 23.88 21.9998 24.6109 22.3026C25.3418 22.6053 25.9665 23.118 26.406 23.7758C26.8455 24.4336 27.0801 25.207 27.0801 25.9981C27.0801 27.059 26.6587 28.0764 25.9086 28.8265C25.1584 29.5767 24.141 29.9981 23.0801 29.9981ZM34.0801 26.2681C34.0851 26.0881 34.0851 25.9081 34.0801 25.7281L35.9451 23.3981C36.0429 23.2758 36.1106 23.1322 36.1427 22.9789C36.1749 22.8256 36.1706 22.6669 36.1301 22.5156C35.8244 21.3664 35.3671 20.2629 34.7701 19.2344C34.692 19.0998 34.5835 18.9853 34.4533 18.9C34.3231 18.8147 34.1748 18.761 34.0201 18.7431L31.0551 18.4131C30.9318 18.2831 30.8068 18.1581 30.6801 18.0381L30.3301 15.0656C30.3121 14.9109 30.2582 14.7625 30.1727 14.6323C30.0872 14.5021 29.9725 14.3936 29.8376 14.3156C28.8087 13.7198 27.7053 13.2629 26.5564 12.9569C26.405 12.9166 26.2462 12.9125 26.0929 12.9448C25.9397 12.9772 25.7961 13.0451 25.6739 13.1431L23.3501 14.9981C23.1701 14.9981 22.9901 14.9981 22.8101 14.9981L20.4801 13.1369C20.3578 13.0391 20.2142 12.9714 20.0609 12.9392C19.9076 12.9071 19.7489 12.9114 19.5976 12.9519C18.4486 13.2581 17.3452 13.7155 16.3164 14.3119C16.1818 14.39 16.0673 14.4985 15.982 14.6287C15.8967 14.7589 15.843 14.9072 15.8251 15.0619L15.4951 18.0319C15.3651 18.156 15.2401 18.281 15.1201 18.4069L12.1476 18.7481C11.9929 18.7661 11.8445 18.82 11.7143 18.9055C11.5841 18.991 11.4756 19.1058 11.3976 19.2406C10.8018 20.2696 10.3449 21.3729 10.0389 22.5219C9.99863 22.6733 9.99451 22.832 10.0269 22.9853C10.0592 23.1386 10.1271 23.2821 10.2251 23.4044L12.0801 25.7281C12.0801 25.9081 12.0801 26.0881 12.0801 26.2681L10.2189 28.5981C10.1211 28.7204 10.0534 28.864 10.0213 29.0173C9.98914 29.1706 9.99346 29.3293 10.0339 29.4806C10.3396 30.6299 10.797 31.7333 11.3939 32.7619C11.472 32.8965 11.5805 33.011 11.7107 33.0962C11.841 33.1815 11.9893 33.2352 12.1439 33.2531L15.1089 33.5831C15.2331 33.7131 15.3581 33.8381 15.4839 33.9581L15.8301 36.9306C15.8481 37.0853 15.902 37.2337 15.9875 37.3639C16.0731 37.4942 16.1878 37.6026 16.3226 37.6806C17.3516 38.2764 18.4549 38.7333 19.6039 39.0394C19.7553 39.0796 19.914 39.0837 20.0673 39.0514C20.2206 39.019 20.3642 38.9511 20.4864 38.8531L22.8101 36.9981C22.9901 37.0031 23.1701 37.0031 23.3501 36.9981L25.6801 38.8631C25.8025 38.9609 25.9461 39.0286 26.0994 39.0607C26.2526 39.0929 26.4113 39.0885 26.5626 39.0481C27.7119 38.7424 28.8153 38.285 29.8439 37.6881C29.9785 37.61 30.093 37.5014 30.1783 37.3712C30.2636 37.241 30.3173 37.0927 30.3351 36.9381L30.6651 33.9731C30.7951 33.8498 30.9201 33.7248 31.0401 33.5981L34.0126 33.2481C34.1674 33.2301 34.3158 33.1762 34.446 33.0907C34.5762 33.0052 34.6846 32.8904 34.7626 32.7556C35.3585 31.7267 35.8153 30.6233 36.1214 29.4744C36.1616 29.323 36.1658 29.1642 36.1334 29.0109C36.1011 28.8576 36.0331 28.7141 35.9351 28.5919L34.0801 26.2681ZM32.0676 25.4556C32.0889 25.817 32.0889 26.1793 32.0676 26.5406C32.0527 26.788 32.1303 27.0321 32.2851 27.2256L34.0589 29.4419C33.8554 30.0887 33.5947 30.7162 33.2801 31.3169L30.4551 31.6369C30.2091 31.6642 29.982 31.7817 29.8176 31.9669C29.577 32.2375 29.3208 32.4937 29.0501 32.7344C28.865 32.8987 28.7474 33.1258 28.7201 33.3719L28.4064 36.1944C27.8058 36.5091 27.1783 36.7697 26.5314 36.9731L24.3139 35.1994C24.1364 35.0576 23.916 34.9804 23.6889 34.9806H23.6289C23.2675 35.0019 22.9052 35.0019 22.5439 34.9806C22.2965 34.9657 22.0524 35.0432 21.8589 35.1981L19.6364 36.9731C18.9896 36.7696 18.3621 36.509 17.7614 36.1944L17.4414 33.3731C17.4141 33.1271 17.2965 32.8999 17.1114 32.7356C16.8408 32.495 16.5845 32.2387 16.3439 31.9681C16.1796 31.783 15.9524 31.6654 15.7064 31.6381L12.8839 31.3231C12.5691 30.7225 12.3085 30.095 12.1051 29.4481L13.8789 27.2306C14.0338 27.0371 14.1113 26.793 14.0964 26.5456C14.0751 26.1843 14.0751 25.822 14.0964 25.4606C14.1113 25.2132 14.0338 24.9691 13.8789 24.7756L12.1051 22.5544C12.3087 21.9075 12.5693 21.2801 12.8839 20.6794L15.7051 20.3594C15.9512 20.332 16.1783 20.2145 16.3426 20.0294C16.5832 19.7587 16.8395 19.5025 17.1101 19.2619C17.296 19.0974 17.414 18.8697 17.4414 18.6231L17.7551 15.8019C18.3558 15.4871 18.9832 15.2265 19.6301 15.0231L21.8476 16.7969C22.0411 16.9517 22.2852 17.0292 22.5326 17.0144C22.894 16.9931 23.2563 16.9931 23.6176 17.0144C23.865 17.0292 24.1091 16.9517 24.3026 16.7969L26.5239 15.0231C27.1707 15.2266 27.7982 15.4872 28.3989 15.8019L28.7189 18.6231C28.7462 18.8691 28.8638 19.0963 29.0489 19.2606C29.3195 19.5012 29.5758 19.7575 29.8164 20.0281C29.9807 20.2132 30.2079 20.3308 30.4539 20.3581L33.2764 20.6719C33.5911 21.2725 33.8518 21.9 34.0551 22.5469L32.2814 24.7644C32.125 24.9595 32.0474 25.2061 32.0639 25.4556H32.0676Z" fill="#F9F9F9"/>
</g>
</svg>
