<svg width="52" height="52" viewBox="0 0 52 52" fill="none" xmlns="http://www.w3.org/2000/svg">
<g id="List">
<path id="Vector" d="M38 26C38 26.2652 37.8946 26.5196 37.7071 26.7071C37.5196 26.8946 37.2652 27 37 27H15C14.7348 27 14.4804 26.8946 14.2929 26.7071C14.1054 26.5196 14 26.2652 14 26C14 25.7348 14.1054 25.4804 14.2929 25.2929C14.4804 25.1054 14.7348 25 15 25H37C37.2652 25 37.5196 25.1054 37.7071 25.2929C37.8946 25.4804 38 25.7348 38 26ZM15 19H37C37.2652 19 37.5196 18.8946 37.7071 18.7071C37.8946 18.5196 38 18.2652 38 18C38 17.7348 37.8946 17.4804 37.7071 17.2929C37.5196 17.1054 37.2652 17 37 17H15C14.7348 17 14.4804 17.1054 14.2929 17.2929C14.1054 17.4804 14 17.7348 14 18C14 18.2652 14.1054 18.5196 14.2929 18.7071C14.4804 18.8946 14.7348 19 15 19ZM37 33H15C14.7348 33 14.4804 33.1054 14.2929 33.2929C14.1054 33.4804 14 33.7348 14 34C14 34.2652 14.1054 34.5196 14.2929 34.7071C14.4804 34.8946 14.7348 35 15 35H37C37.2652 35 37.5196 34.8946 37.7071 34.7071C37.8946 34.5196 38 34.2652 38 34C38 33.7348 37.8946 33.4804 37.7071 33.2929C37.5196 33.1054 37.2652 33 37 33Z" fill="#F9F9F9"/>
</g>
</svg>
