<svg width="16" height="17" viewBox="0 0 16 17" fill="none" xmlns="http://www.w3.org/2000/svg">
<rect y="0.5" width="16" height="16" rx="8" fill="#F5B100"/>
<path d="M8.89862 3.77273L8.78782 9.99006H7.60742L7.49663 3.77273H8.89862ZM8.19975 12.581C7.96396 12.581 7.76225 12.4986 7.59464 12.3338C7.42702 12.1662 7.34464 11.9645 7.34748 11.7287C7.34464 11.4957 7.42702 11.2969 7.59464 11.1321C7.76225 10.9645 7.96396 10.8807 8.19975 10.8807C8.42987 10.8807 8.62873 10.9645 8.79634 11.1321C8.96396 11.2969 9.04918 11.4957 9.05202 11.7287C9.04918 11.8849 9.00799 12.0284 8.92844 12.1591C8.85174 12.2869 8.74947 12.3892 8.62163 12.4659C8.49379 12.5426 8.35316 12.581 8.19975 12.581Z" fill="black"/>
</svg>
